<svg width="12" height="8" viewBox="0 0 12 8" fill="none" xmlns="http://www.w3.org/2000/svg">
<path fill-rule="evenodd" clip-rule="evenodd" d="M11.2004 0.365908C11.3078 0.473346 11.3681 0.619043 11.3681 0.77096C11.3681 0.922877 11.3078 1.06857 11.2004 1.17601L4.75967 7.61731C4.70114 7.67587 4.63166 7.72231 4.55518 7.754C4.4787 7.78569 4.39672 7.802 4.31394 7.802C4.23115 7.802 4.14918 7.78569 4.0727 7.754C3.99622 7.72231 3.92673 7.67587 3.86821 7.61731L0.667897 4.417C0.614667 4.36377 0.572443 4.30058 0.543635 4.23103C0.514827 4.16148 0.5 4.08694 0.5 4.01166C0.5 3.93638 0.514827 3.86184 0.543635 3.7923C0.572443 3.72275 0.614667 3.65955 0.667897 3.60633C0.721127 3.5531 0.784319 3.51087 0.853868 3.48206C0.923416 3.45326 0.997957 3.43843 1.07324 3.43843C1.14851 3.43843 1.22305 3.45326 1.2926 3.48206C1.36215 3.51087 1.42534 3.5531 1.47857 3.60633L4.31451 6.44226L10.3897 0.365908C10.4972 0.258503 10.6429 0.198166 10.7948 0.198166C10.9467 0.198166 11.093 0.258503 11.2004 0.365908Z" fill="white"/>
</svg>
