<svg width="91" height="36" viewBox="0 0 91 36" fill="none" xmlns="http://www.w3.org/2000/svg">
<path d="M40.318 25.952C43.3428 25.952 45.0891 23.6756 45.0891 20.7132C45.0891 17.7819 43.3428 15.5055 40.318 15.5055C37.761 15.5055 35.5158 17.7819 35.5158 20.7132C35.5158 23.6756 37.761 25.952 40.318 25.952ZM32.1792 35.8994V12.4808H35.4222V15.3184C36.5448 13.2603 39.133 12.5119 40.5051 12.5119C45.3385 12.5119 48.2698 16.2851 48.2698 20.7132C48.2698 25.1724 45.3385 28.9767 40.5051 28.9767C39.1019 28.9767 36.5448 28.1348 35.4222 26.1079V35.8994H32.1792ZM59.2351 25.952C62.2599 25.952 64.0061 23.6756 64.0061 20.7132C64.0061 17.7819 62.2599 15.5055 59.2351 15.5055C56.678 15.5055 54.4328 17.7819 54.4328 20.7132C54.4328 23.6756 56.678 25.952 59.2351 25.952ZM51.0962 35.8994V12.4808H54.3393V15.3184C55.4619 13.2603 58.0501 12.5119 59.4222 12.5119C64.2556 12.5119 67.1868 16.2851 67.1868 20.7132C67.1868 25.1724 64.2556 28.9767 59.4222 28.9767C58.0189 28.9767 55.4619 28.1348 54.3393 26.1079V35.8994H51.0962Z" fill="#215BFB"/>
<path d="M8.92942 14.9669C7.71608 14.3279 6.52318 14.263 5.48372 14.4162C4.76901 14.5487 4.07475 14.8565 3.85868 15.6488C3.79347 15.9346 3.77174 16.5736 4.13996 17.036C4.29211 17.2347 4.48645 17.4321 4.74727 17.5646C5.02855 17.7191 5.26764 17.7854 5.96062 17.9386L7.08703 18.2023C10.121 18.9063 11.3561 19.479 12.0721 20.1622C13.0259 21.1091 13.6972 22.9144 13.1129 24.9172C12.7664 25.864 11.8778 26.9421 10.7501 27.6473C10.0571 27.9772 9.12504 28.3734 8.34385 28.4838C6.47971 28.8357 4.78946 28.5279 3.01227 27.6252C1.23508 26.6797 0.281282 25.1601 0 24.4782L2.99054 23.2235C3.12095 23.5534 3.53265 24.1262 4.46471 24.6328C5.765 25.2939 6.61013 25.425 7.91042 25.1614C8.21343 25.0951 8.71207 24.9419 9.23244 24.6769C9.68761 24.4133 9.94715 24.1041 10.0558 23.8405C10.2936 23.4223 10.1428 22.8495 9.86021 22.5858C9.53546 22.2559 8.77728 21.991 6.45798 21.4857L5.24463 21.2221C4.3343 21.0233 3.61959 20.7597 2.99054 20.3635C2.29756 19.9232 1.77719 19.4167 1.64678 19.2401C0.692977 18.0932 0.303017 15.8475 0.779918 14.4825C1.45244 12.5005 3.33703 11.4004 4.96335 11.1134C6.37232 10.8926 8.47426 10.9588 10.4036 11.9719C11.4865 12.5005 12.2895 13.2045 12.7881 13.9539L10.0558 15.8255C9.81802 15.4956 9.55719 15.2748 8.92942 14.9669Z" fill="#215BFB"/>
<path d="M22.6155 28.6258C18.91 28.6258 15.7119 25.5325 15.7119 21.807V11.9619H19.0869V21.7646C19.0869 23.7681 20.4765 25.228 22.6155 25.228C24.7324 25.228 26.1441 23.7681 26.1441 21.7646V11.9619H29.5191V21.8083C29.5191 25.5325 26.321 28.6258 22.6155 28.6258Z" fill="#215BFB"/>
<path d="M84.3345 11.9621C87.9122 11.9621 91 15.0553 91 18.7808L91 28.626L87.7413 28.626L87.7413 18.8233C87.7413 16.8198 86.3997 15.3599 84.3345 15.3599C82.2906 15.3599 80.9276 16.8198 80.9276 18.8232L80.9276 28.626L77.6689 28.626L77.6689 18.7796C77.6689 15.0553 80.7567 11.9621 84.3345 11.9621Z" fill="#215BFB"/>
<path d="M73.8386 11.486V28.6259H70.5059V11.486H73.8386Z" fill="#215BFB"/>
<path d="M68.8933 9.12679L72.4223 3.01435C72.8465 2.27966 73.9472 2.42457 74.1667 3.244L74.7405 5.38524C74.8058 5.62918 74.9654 5.83716 75.1841 5.96343L76.9323 6.97274C77.667 7.39691 77.5221 8.4976 76.7027 8.71716L69.9644 10.5227C69.145 10.7422 68.4691 9.86147 68.8933 9.12679Z" fill="#215BFB"/>
</svg>
